<svg width="112" height="36" viewBox="0 0 112 36" fill="none" xmlns="http://www.w3.org/2000/svg">
<path d="M7.37131 9.03941L14.9672 28.1982L3.38392 13.7411L7.37131 9.03941ZM27.9165 9.03941L31.9046 13.7411L20.3226 28.1982L27.9165 9.03941ZM9.70735 7.83511H25.5811L17.6453 27.8579L9.70735 7.83511ZM28.1124 5.23224H7.17743L0 13.6956L17.6453 35.7181L35.2905 13.6956L28.1124 5.23224Z" fill="#00554C"/>
<path d="M7.16382 2.60355V0H11.8741V2.60355H7.16382Z" fill="#00554C"/>
<path d="M15.264 2.60355V0H19.9744V2.60355H15.264Z" fill="#00554C"/>
<path d="M23.3654 2.60355V0H28.0757V2.60355H23.3654Z" fill="#00554C"/>
<path d="M45.2662 6.03238H59.673V8.61351H48.1218V11.6103H57.8551V14.1928H48.0958V20.4433H45.2662V6.03238Z" fill="#00554C"/>
<path d="M77.6322 17.8608C80.2802 17.8608 82.8498 17.1618 84.512 15.1227V18.8932C82.5637 20.211 80.1765 20.4433 77.6322 20.4433C72.0003 20.4433 67.4565 17.498 67.4565 13.2378C67.4565 8.97555 72.0003 6.03238 77.6322 6.03238C80.1765 6.03238 82.5904 6.26332 84.512 7.58106V11.378C82.8764 9.33759 80.2796 8.61351 77.6322 8.61351C73.6346 8.61351 70.4165 10.3707 70.4165 13.2378C70.4165 16.1036 73.6346 17.8608 77.6322 17.8608Z" fill="#00554C"/>
<path d="M94.1135 20.4433V6.03238L108.155 15.8203V6.03306H110.985V20.4439L96.9418 10.7592V20.4439L94.1135 20.4433Z" fill="#00554C"/>
<path d="M49.8994 27.9794C49.8994 29.1294 48.9198 29.6864 47.7299 29.6864C46.3659 29.6864 45.2655 28.8428 45.2655 27.8117C45.2655 26.7751 46.3659 25.9336 47.7299 25.9336C48.3395 25.9336 48.9279 26.1285 49.3956 26.4491V27.3607C48.9894 26.8444 48.3538 26.6081 47.7299 26.6081C46.7858 26.6081 46.0499 27.1453 46.0499 27.8124C46.0499 28.4807 46.7858 29.0099 47.7292 29.0099C48.3115 29.0099 48.9696 28.8706 49.1013 28.4393H48.0596V27.7702H49.8994V27.9794Z" fill="#00554C"/>
<path d="M53.8451 26.7473H55.1756C55.6596 26.7473 55.8412 26.8669 55.8412 27.0815C55.8412 27.2989 55.6596 27.4238 55.1756 27.4238H53.8451V26.7473ZM53.8451 28.1044H55.0712L56.001 29.5614H56.8748C56.5833 29.1077 56.1771 28.5086 55.8692 28.029C56.289 27.8959 56.6174 27.6174 56.6174 27.0815C56.6174 26.3099 55.8835 26.0647 55.2316 26.0647H53.1038V29.5614H53.8451V28.1044Z" fill="#00554C"/>
<path d="M60.389 27.8124C60.389 27.1514 61.1311 26.6223 62.0615 26.6223C62.9852 26.6223 63.7347 27.1514 63.7347 27.8124C63.7347 28.4665 62.9852 28.9963 62.0609 28.9963C61.1311 28.9963 60.389 28.4665 60.389 27.8124ZM59.6053 27.8124C59.6053 28.8428 60.7112 29.6871 62.0609 29.6871C63.4193 29.6871 64.5116 28.8428 64.5116 27.8124C64.5116 26.7833 63.4193 25.9336 62.0609 25.9336C60.7112 25.9336 59.6053 26.7833 59.6053 27.8124Z" fill="#00554C"/>
<path d="M70.6684 26.0647H71.4248V27.9598C71.4248 29.1491 70.4589 29.6864 69.5004 29.6864C68.5406 29.6864 67.589 29.1498 67.589 27.9591V26.0647H68.331V27.8681C68.331 28.6424 68.9181 28.9956 69.5004 28.9956C70.0807 28.9956 70.6684 28.6424 70.6684 27.8681V26.0647Z" fill="#00554C"/>
<path d="M75.5324 26.7473H76.854C77.3387 26.7473 77.5264 26.8669 77.5264 27.0815C77.5264 27.2989 77.3387 27.4238 76.854 27.4238H75.5324V26.7473ZM75.5324 28.1044H76.9107C77.5626 28.1044 78.2965 27.862 78.2965 27.0815C78.2965 26.3099 77.5626 26.0647 76.9107 26.0647H74.7842V29.5614H75.5324V28.1044Z" fill="#00554C"/>
</svg>
