<svg width="17" height="18" viewBox="0 0 17 18" fill="none" xmlns="http://www.w3.org/2000/svg">
<path d="M11.2796 12.8276L12.6741 6.25335C12.731 5.97507 12.6962 5.77586 12.5698 5.65569C12.4496 5.53553 12.2883 5.51339 12.0859 5.58929L3.88951 8.74833C3.7061 8.81789 3.57961 8.89695 3.51004 8.98549C3.4468 9.07403 3.44048 9.15941 3.49107 9.24163C3.54167 9.31752 3.64286 9.3776 3.79464 9.42188L5.89118 10.0765L10.7578 7.01228C10.8906 6.92373 10.9918 6.90476 11.0614 6.95536C11.1057 6.98698 11.093 7.03441 11.0234 7.09766L7.0865 10.6551L6.93471 12.8181C7.08017 12.8181 7.22247 12.7485 7.36161 12.6094L8.38616 11.6228L10.5112 13.1881C10.9159 13.4157 11.1721 13.2956 11.2796 12.8276ZM16.3265 5.62723C16.7755 6.67708 17 7.77753 17 8.92857C17 10.0796 16.7755 11.1801 16.3265 12.2299C15.8774 13.2798 15.2734 14.1842 14.5145 14.9431C13.7556 15.702 12.8512 16.306 11.8013 16.755C10.7515 17.2041 9.65104 17.4286 8.5 17.4286C7.34896 17.4286 6.24851 17.2041 5.19866 16.755C4.14881 16.306 3.24442 15.702 2.48549 14.9431C1.72656 14.1842 1.12258 13.2798 0.673549 12.2299C0.224516 11.1801 0 10.0796 0 8.92857C0 7.77753 0.224516 6.67708 0.673549 5.62723C1.12258 4.57738 1.72656 3.67299 2.48549 2.91406C3.24442 2.15513 4.14881 1.55115 5.19866 1.10212C6.24851 0.653087 7.34896 0.42857 8.5 0.42857C9.65104 0.42857 10.7515 0.653087 11.8013 1.10212C12.8512 1.55115 13.7556 2.15513 14.5145 2.91406C15.2734 3.67299 15.8774 4.57738 16.3265 5.62723Z" fill="#49BAEA"/>
</svg>
