<svg width="66" height="18" viewBox="0 0 66 18" fill="none" xmlns="http://www.w3.org/2000/svg">
<path d="M61.5277 12.9401H65.431V11.6907H61.5273C61.6746 12.0945 61.6746 12.5362 61.5273 12.9401" fill="white"/>
<path d="M26.9053 5.05926H23.6636V12.9379H26.6767C28.6197 12.9379 29.3856 12.0713 29.3856 10.5855C29.3856 9.26816 28.4025 8.81784 28.4025 8.81784C28.6655 8.64262 28.8804 8.406 29.028 8.12911C29.1756 7.85221 29.2513 7.54363 29.2483 7.23091C29.2483 5.90236 28.4939 5.05811 26.9053 5.05811V5.05926ZM27.0308 6.30749C27.6367 6.30749 27.9327 6.69022 27.9327 7.25331C27.9327 7.8948 27.5096 8.23274 26.8924 8.23274H24.9894V6.30942L27.0308 6.30749ZM24.9894 9.47092H26.8936C27.7853 9.47092 28.037 9.98844 28.037 10.5855C28.037 11.3282 27.7625 11.6885 26.7226 11.6885H24.9894V9.47092ZM35.1785 5.05926H33.841V12.9379H35.1785V5.05926ZM40.517 5.05926V12.9379H45.69V11.6905H41.8542V5.05926H40.517ZM50.0733 5.05926V12.9379H55.2463V11.6905H51.4085V5.05926H50.0733Z" fill="white"/>
<path d="M63.5646 6.17314L63.4587 6.30947L59.6943 11.1328C59.462 11.1453 59.2385 11.2239 59.0507 11.359C58.8629 11.4942 58.7189 11.68 58.6362 11.8941C58.5535 12.1082 58.5356 12.3414 58.5847 12.5653C58.6339 12.7892 58.7479 12.9942 58.9129 13.1556C59.078 13.317 59.2871 13.4277 59.5147 13.4744C59.7424 13.5211 59.979 13.5018 60.1958 13.4187C60.4125 13.3357 60.6002 13.1925 60.736 13.0066C60.8718 12.8206 60.9499 12.5998 60.9608 12.371C60.9713 12.1708 60.9295 11.9714 60.8393 11.7917L61.2796 11.2302L64.703 6.866C64.96 6.85639 65.2072 6.76571 65.408 6.60733C65.6088 6.44895 65.7526 6.23124 65.8183 5.98628C65.884 5.74131 65.8681 5.48204 65.7729 5.24666C65.6777 5.01128 65.5082 4.81223 65.2895 4.67885C65.0708 4.54546 64.8144 4.48479 64.558 4.50577C64.3016 4.52675 64.0589 4.62827 63.8655 4.79537C63.6721 4.96248 63.5384 5.18633 63.4839 5.43396C63.4294 5.68159 63.4572 5.93989 63.563 6.17082" fill="white"/>
<path d="M62.8927 5.05933H59.1074V6.30871H62.8927C62.7456 5.90484 62.7456 5.46319 62.8927 5.05933Z" fill="white"/>
<path fill-rule="evenodd" clip-rule="evenodd" d="M5.90512 0H12.371C15.6323 0 18.2761 2.60387 18.2761 5.81591V12.1841C18.2761 15.3961 15.6323 18 12.371 18H5.90512C2.64381 18 0 15.3961 0 12.1841V5.81591C0 2.60387 2.64381 0 5.90512 0ZM9.95663 5.82984L10.0641 5.69197C9.95637 5.4582 9.92781 5.19654 9.9826 4.94557C10.0374 4.6946 10.1726 4.46762 10.3684 4.29812C10.5641 4.12861 10.81 4.02556 11.0697 4.00417C11.3295 3.98277 11.5893 4.04416 11.8109 4.17929C12.0325 4.31441 12.2042 4.51611 12.3005 4.75462C12.3969 4.99314 12.4129 5.25585 12.3461 5.50398C12.2793 5.75212 12.1333 5.97255 11.9297 6.13274C11.726 6.29294 11.4755 6.38443 11.215 6.39371L7.75049 10.8096L7.30699 11.3797C7.42202 11.6106 7.45846 11.8719 7.41091 12.1249C7.36335 12.3778 7.23433 12.609 7.04297 12.7841C6.8516 12.9592 6.60806 13.0689 6.34842 13.097C6.08878 13.1251 5.82686 13.0701 5.60145 12.9401C5.37603 12.8101 5.19912 12.6121 5.09692 12.3754C4.99472 12.1386 4.97266 11.8758 5.03401 11.6257C5.09536 11.3756 5.23686 11.1517 5.43755 10.987C5.63824 10.8224 5.88744 10.7258 6.14824 10.7115L9.95663 5.82984ZM5.55455 4.5654H9.38451H9.38529C9.23661 4.97416 9.23661 5.42108 9.38529 5.82984H5.55455V4.5654ZM11.9526 12.5387H8.00224H8.00185C8.15075 12.1299 8.15075 11.6829 8.00185 11.2742H11.9526V12.5387Z" fill="white"/>
</svg>
