<svg width="64" height="18" viewBox="0 0 64 18" fill="none" xmlns="http://www.w3.org/2000/svg">
<path d="M8.8956 18C8.46297 17.9976 8.03301 17.9312 7.61936 17.803C7.16573 17.6622 6.72727 17.4756 6.31062 17.2459C5.74084 16.9495 5.19653 16.6055 4.68336 16.2175C4.22147 15.8515 3.78493 15.4539 3.37679 15.0275C2.82395 14.4681 2.30825 13.896 1.88418 13.3705C1.41515 12.8112 1.01017 12.2 0.676967 11.5485L0.648799 11.489V11.4871L0.642298 11.4734V11.4702V11.4671L0.609487 11.396L0.60732 11.3913L0.605153 11.3866L0.574199 11.318L0.570175 11.3093V11.3068L0.547269 11.2554L0.54015 11.2394L0.534887 11.2272L0.530554 11.2175V11.2156L0.506719 11.1608L0.504243 11.1546L0.497742 11.1486L0.469574 11.0822L0.464931 11.0713L0.437382 11.0039L0.435525 10.9995L0.433667 10.9952L0.407666 10.9294L0.404571 10.9216L0.379498 10.8567V10.8546L0.376093 10.8458L0.352258 10.7832L0.350091 10.7769L0.347305 10.7697C0.339876 10.7496 0.332757 10.7296 0.325328 10.7089V10.7049L0.320994 10.6926C0.312637 10.6695 0.306136 10.6504 0.300255 10.6335V10.6297L0.295612 10.6156L0.271468 10.5536L0.265586 10.5354L0.246704 10.4778L0.243609 10.4687L0.241133 10.4597C0.234323 10.4384 0.228751 10.4199 0.223489 10.403L0.218227 10.3851L0.203059 10.3344L0.200273 10.3247V10.3228L0.197178 10.3118L0.181701 10.2617L0.179224 10.2533L0.176748 10.2404C0.171486 10.2207 0.166843 10.2035 0.162509 10.1872L0.159414 10.1778L0.156628 10.1675C0.152604 10.1515 0.147961 10.1343 0.143318 10.1149L0.138674 10.0961V10.0917C0.13527 10.0776 0.130626 10.0604 0.126293 10.0403L0.119792 10.0156C0.116078 10.0002 0.112363 9.98427 0.108339 9.96486L0.105863 9.95296L0.103077 9.94043C0.0993628 9.92352 0.0959578 9.90661 0.0925528 9.89001L0.0888384 9.86684C0.086362 9.85494 0.0841952 9.84303 0.0817189 9.83113V9.82487V9.81955V9.81767L0.0770758 9.79262V9.78948L0.0705754 9.75284C0.0684086 9.74126 0.0665514 9.72967 0.0646941 9.71808L0.0585033 9.67988C0.0566461 9.66892 0.0550984 9.65796 0.0532411 9.64856C0.0513839 9.63917 0.0492171 9.62132 0.0470503 9.60754L0.045193 9.59407L0.0433358 9.5806C0.041169 9.56463 0.0390022 9.54929 0.037145 9.53332L0.0300255 9.50889V9.50451C0.0269301 9.48634 0.0269301 9.47131 0.0238347 9.45753C0.0238347 9.44908 0.0219774 9.44062 0.0210488 9.43217V9.42903C0.0195011 9.414 0.0179534 9.39772 0.0164057 9.38269C0.0164057 9.37392 0.014858 9.36483 0.0139294 9.35607V9.35419C0.0126912 9.34124 0.0115562 9.3283 0.0105244 9.31536C0.0105244 9.30377 0.00866716 9.29249 0.00804807 9.28091C0.00742899 9.26932 0.00650037 9.25805 0.00557174 9.24677C0.00557174 9.23393 0.00402404 9.22109 0.00340495 9.20794C0.00278587 9.19479 0.00340495 9.18633 0.00154771 9.17662C-0.000309542 9.16691 0.00154771 9.15063 0 9.13779V9.13591C0 9.12495 0 9.11399 0 9.10303C0 9.09207 0 9.08581 0 9.07735V9.06482C0 9.05292 0 9.04071 0 9.02881C0 9.01691 0 9.00939 0 8.99969V8.92672C0 8.91169 0 8.89666 0 8.88162C0 8.87098 0 8.86033 0 8.85031C0 8.84029 0 8.82369 0 8.81022C0 8.80271 0 8.7955 0 8.78799V8.77703C0 8.76012 -2.32831e-10 8.74571 0.00216679 8.73131C0.00216679 8.72285 0.00216679 8.71408 0.00216679 8.70563C0.00216679 8.69185 0.0037145 8.67713 0.00495266 8.65959C0.00495266 8.65145 0.00495266 8.64299 0.00680991 8.63485C0.00680991 8.61919 0.00928624 8.60353 0.0105244 8.58788V8.57253V8.56157C0.0119689 8.54591 0.0135166 8.53025 0.0151675 8.5146L0.0176439 8.48986V8.48485C0.0176439 8.47075 0.0207393 8.45541 0.0232156 8.43725C0.0232156 8.43161 0.0232156 8.42597 0.0253824 8.42033V8.41219V8.40906C0.0272396 8.3934 0.0294064 8.37774 0.0315732 8.36209L0.0346686 8.33985C0.037145 8.32294 0.0396213 8.30603 0.0420976 8.28943L0.045193 8.27064V8.26782C0.0476694 8.25216 0.0504552 8.23494 0.0538602 8.21521L0.0575747 8.19329C0.0606701 8.17513 0.0640751 8.15665 0.06748 8.13817L0.0702659 8.12377V8.11594C0.0736708 8.09778 0.0773853 8.07899 0.0810998 8.06082L0.0841952 8.04517V8.04235C0.0879097 8.02418 0.0919338 8.00539 0.0959578 7.98692V7.98097L0.0984341 7.96938C0.102149 7.95216 0.106482 7.93399 0.111435 7.9127L0.115459 7.8961C0.119792 7.87825 0.124436 7.85883 0.130317 7.83503L0.132484 7.82658L0.134341 7.81969C0.139603 7.79871 0.145175 7.77741 0.151366 7.75424L0.152913 7.74829L0.154771 7.74171C0.160961 7.71885 0.166533 7.69849 0.171795 7.67908L0.175819 7.66467C0.181082 7.64619 0.187582 7.62427 0.194082 7.60204V7.59953L0.197487 7.58826C0.204297 7.56571 0.211107 7.54379 0.217298 7.52375L0.220703 7.51279C0.227513 7.49118 0.234942 7.468 0.243609 7.4417L0.245466 7.43575V7.43356C0.253205 7.40976 0.261562 7.38564 0.268991 7.36341L0.272706 7.35307C0.280444 7.33021 0.288802 7.30704 0.296541 7.28543L0.298398 7.28042L0.300255 7.27541C0.309851 7.2491 0.317899 7.2275 0.325328 7.20683L0.328423 7.19837C0.3374 7.17488 0.346686 7.15046 0.356282 7.12572L0.358139 7.12102C0.367426 7.09691 0.37764 7.07154 0.389093 7.04335L0.39126 7.03803C0.401785 7.01204 0.41169 6.98761 0.422214 6.96381L0.425619 6.95567C0.434596 6.93406 0.444501 6.91089 0.456573 6.88302L0.460288 6.87456C0.469574 6.85327 0.479789 6.82947 0.493099 6.80003L0.495885 6.79376C0.509815 6.76245 0.521577 6.73677 0.532411 6.71328C1.1775 5.31031 2.14203 4.33324 3.07653 3.38874L3.0951 3.36995C3.63866 2.82004 4.146 2.3506 4.64591 1.93504C5.21765 1.45464 5.82685 1.0218 6.46756 0.640732C6.82373 0.42631 7.2059 0.259567 7.6045 0.144681C7.94609 0.0491533 8.29883 0.000490849 8.65323 0C9.12981 0.00348041 9.60271 0.0849101 10.0536 0.241136C10.485 0.390274 10.9026 0.577755 11.3014 0.801385C11.9382 1.14742 12.5493 1.54013 13.1295 1.97637C13.6757 2.38793 14.1917 2.83891 14.6735 3.32579C15.1765 3.84056 15.6369 4.3962 16.05 4.98713C16.4361 5.51471 16.7548 6.08953 16.9985 6.69794C17.1573 7.12342 17.2923 7.55763 17.4027 7.9985C17.499 8.3817 17.5532 8.7745 17.5643 9.16973C17.5719 9.55707 17.5256 9.94355 17.4266 10.3178C17.3099 10.746 17.1442 11.1589 16.9328 11.5482C16.6318 12.1194 16.2795 12.6615 15.8804 13.1676C15.483 13.6643 15.0576 14.1374 14.6063 14.5846C14.1188 15.0778 13.6053 15.5438 13.0679 15.9807C12.5055 16.4389 11.9156 16.8614 11.3017 17.2459C10.5865 17.723 9.75207 17.9845 8.8956 18ZM4.95792 15.2868C4.99538 15.3124 5.03407 15.3384 5.07276 15.3638C5.03005 15.3356 4.99259 15.3102 4.95792 15.2868ZM4.28158 7.87794L4.26115 7.92272V7.92616L4.24288 7.9675L4.24103 7.9722L4.22369 8.0126V8.01479V8.01698L4.20667 8.05832V8.06114L4.18964 8.10404V8.10592L4.17416 8.14632V8.14913V8.15164L4.16024 8.18953L4.15838 8.19423L4.14507 8.23181V8.23494V8.23745C4.14073 8.24935 4.13671 8.26219 4.13207 8.27628V8.27941C4.1268 8.29538 4.12278 8.30728 4.11938 8.31887L4.11752 8.32482L4.10668 8.36083L4.10452 8.36835C4.10101 8.37983 4.0976 8.39132 4.0943 8.4028V8.40687V8.41094L4.08471 8.44539L4.06892 8.45541L4.06706 8.46292L4.05963 8.49111L4.05747 8.49957C4.05468 8.51084 4.0519 8.52211 4.04911 8.53339L4.04694 8.54247L4.03982 8.57378L4.03797 8.58255L4.03549 8.59445L4.03147 8.61356V8.61857V8.62389L4.0262 8.64988V8.65489L4.02001 8.67118L4.0163 8.69122L4.01444 8.70187V8.70657V8.71314C4.01289 8.72285 4.01135 8.73224 4.0098 8.74195L4.00794 8.75385L4.00392 8.78204L4.00206 8.79394C4.00206 8.80333 3.99958 8.81242 3.99835 8.82181V8.82901V8.83622C3.99835 8.84498 3.99618 8.85375 3.99525 8.86252V8.87129V8.87912V8.88757C3.99525 8.89352 3.99525 8.89947 3.9937 8.90511V8.91983V8.92766C3.9937 8.93361 3.9937 8.93987 3.9937 8.94582C3.9937 8.95177 3.9937 8.9549 3.9937 8.9596C3.9937 8.9643 3.9937 8.97589 3.99215 8.98403C3.99215 8.98716 3.99215 8.99029 3.99215 8.99374V8.99937C3.99215 9.00752 3.99215 9.01566 3.99215 9.02411C3.99215 9.03257 3.99215 9.03601 3.99215 9.04196C3.99215 9.04885 3.99215 9.05606 3.99215 9.06295V9.08267C3.99215 9.0905 3.99215 9.09833 3.99215 9.10616V9.16284C3.99215 9.16942 3.99215 9.17631 3.99215 9.18289C3.99215 9.18946 3.99215 9.19698 3.99215 9.20418V9.22235C3.99215 9.22986 3.99215 9.23738 3.99215 9.24489V9.25397V9.26306C3.99215 9.26807 3.99215 9.27276 3.99215 9.27777V9.28529V9.295V9.30439C3.99215 9.31066 3.99215 9.31723 3.99215 9.3235V9.33414V9.34573V9.36014C3.99215 9.36859 3.9937 9.37705 3.99463 9.3855C3.99463 9.38895 3.99463 9.39208 3.99463 9.39552V9.40116C3.99463 9.40993 3.99649 9.41839 3.99773 9.42684V9.43342V9.44219L3.99958 9.45534L4.00113 9.46724L4.0033 9.48227V9.48979L4.00546 9.50419V9.51171V9.52079L4.00732 9.53144V9.54052V9.5496L4.00918 9.55994L4.0132 9.58123V9.58718L4.01537 9.59908V9.60503L4.01847 9.62132L4.02094 9.63322C4.0228 9.64261 4.02476 9.6519 4.02682 9.66109L4.02961 9.67455L4.03394 9.69366L4.0358 9.70243V9.709V9.71495L4.0423 9.74251L4.0454 9.75535C4.04818 9.76662 4.05066 9.77602 4.05282 9.78447L4.05592 9.79637L4.06366 9.82487L4.06521 9.83051L4.06675 9.83615C4.06923 9.84554 4.07202 9.85462 4.07449 9.86402L4.0779 9.87623L4.08626 9.90473L4.0878 9.91005V9.91475L4.0974 9.94607V9.95076V9.95577L4.10235 9.97081L4.10761 9.98678L4.10978 9.99304V9.9968L4.11783 10.0209L4.1203 10.0281L4.12371 10.0378V10.0422L4.13331 10.0698L4.1364 10.0788L4.14878 10.1127L4.15064 10.1174V10.1205L4.16395 10.1559L4.16643 10.1621L4.18036 10.1982L4.18221 10.2025L4.19459 10.2339L4.19676 10.2392V10.2414V10.2442C4.20171 10.2564 4.20698 10.2689 4.21224 10.2815L4.2141 10.2862L4.22957 10.3231L4.23174 10.3284L4.24381 10.3563L4.24722 10.3641L4.25031 10.371L4.26672 10.4083V10.4105L4.26858 10.4146L4.28591 10.4528V10.4559V10.4581L4.29086 10.4687L4.30417 10.4979V10.4997L4.31067 10.5132L4.32367 10.5411C4.72785 11.2556 5.23263 11.9068 5.82216 12.4742C6.28993 12.9783 6.84155 13.3952 7.4519 13.7062C7.88843 13.965 8.38213 14.109 8.88786 14.1249C9.36362 14.1164 9.82718 13.9712 10.2245 13.7062C10.8902 13.2861 11.5061 12.7902 12.06 12.2281C12.5749 11.7372 13.011 11.1681 13.3527 10.5414C13.8603 9.5806 13.7631 8.88162 13.3892 7.84819C13.0861 7.15913 12.6591 6.53304 12.13 6.00177C11.5766 5.44442 10.9456 4.97197 10.257 4.59943C9.81085 4.33045 9.30578 4.17755 8.78695 4.15442C8.36068 4.15899 7.94356 4.28007 7.57974 4.50485C6.8922 4.92478 6.26233 5.4345 5.70639 6.02088L5.69649 6.0309C5.11795 6.55452 4.63885 7.18069 4.28281 7.87856L4.28158 7.87794ZM13.2443 13.5944C13.1252 13.715 13.0029 13.8349 12.8788 13.953C13.0026 13.8349 13.1264 13.715 13.2443 13.5944ZM15.3409 10.816C15.3192 10.8589 15.2969 10.9025 15.274 10.946C15.2972 10.9018 15.318 10.8592 15.3409 10.816ZM13.3032 3.77393C13.3032 3.77393 14.1437 4.70771 14.5042 5.22325C14.6608 5.44748 14.8023 5.667 14.9245 5.8762C14.4699 5.11184 13.3032 3.77393 13.3032 3.77393Z" fill="white"/>
<path d="M27.7407 13.0731C28.1413 13.0731 28.5099 13.065 28.8471 13.0489C29.1843 13.0329 29.5321 12.9982 29.8906 12.945C29.9218 12.9376 29.9545 12.938 29.9855 12.9464C30.0165 12.9547 30.0449 12.9707 30.0683 12.9928C30.0918 13.015 30.1097 13.0426 30.12 13.0733C30.1304 13.104 30.1331 13.1369 30.1279 13.1689V14.3683C30.1279 14.5067 30.0439 14.6029 29.8749 14.6561C29.4623 14.7853 29.0389 14.8762 28.6101 14.9279C28.1543 14.9899 27.6949 15.0219 27.235 15.0238C26.496 15.0442 25.7601 14.9193 25.0682 14.6558C24.5064 14.4315 24.0113 14.0649 23.6299 13.5911C23.2427 13.0889 22.9674 12.5077 22.8234 11.8877C22.6463 11.1391 22.5617 10.3713 22.571 9.6016V8.86597C22.5618 8.09674 22.6441 7.32917 22.8162 6.57983C22.9546 5.96082 23.2243 5.37965 23.6066 4.87652C23.9839 4.40176 24.4771 4.03475 25.0374 3.81174C25.7292 3.54823 26.4652 3.42328 27.2042 3.44379C28.0634 3.45006 28.9164 3.59034 29.7334 3.85968C29.8059 3.87798 29.8718 3.91685 29.9232 3.97177C29.9574 4.02371 29.9741 4.08547 29.9707 4.14777V5.29929C29.9758 5.33134 29.9729 5.36415 29.9625 5.39486C29.9521 5.42557 29.9343 5.45324 29.9108 5.47537C29.8874 5.49751 29.859 5.51344 29.828 5.52178C29.797 5.53013 29.7643 5.53061 29.7331 5.5232C29.4378 5.48144 29.1163 5.44939 28.7688 5.42705C28.4213 5.40471 28.0682 5.39428 27.7096 5.39574C27.2763 5.38345 26.8447 5.45402 26.4373 5.60371C26.1033 5.73574 25.8147 5.96368 25.6072 6.25948C25.3798 6.59878 25.2263 6.98305 25.1568 7.38687C25.0601 7.91697 25.0152 8.45539 25.0223 8.99438V9.49013C25.015 10.0294 25.0626 10.5679 25.1643 11.0973C25.2382 11.5002 25.3973 11.8821 25.6308 12.2169C25.8463 12.5095 26.1397 12.7341 26.4766 12.8645C26.8816 13.0129 27.3104 13.0834 27.741 13.0724L27.7407 13.0731ZM31.9618 3.89286C31.9618 3.72219 32.0404 3.637 32.1988 3.637H34.1589C34.1932 3.63203 34.2284 3.63523 34.2613 3.64633C34.2943 3.65743 34.3242 3.67613 34.3487 3.70096C34.3732 3.72579 34.3915 3.75603 34.4025 3.78934C34.4135 3.82265 34.4168 3.85811 34.4119 3.89286V12.1605C34.3944 12.4011 34.4494 12.6413 34.57 12.8495C34.6531 12.9355 34.7551 13.0007 34.8677 13.0396C34.9803 13.0785 35.1002 13.09 35.2181 13.0734H38.9637C38.9981 13.0684 39.033 13.0716 39.0659 13.0827C39.0988 13.0938 39.1287 13.1125 39.1532 13.1373C39.1778 13.1621 39.1964 13.1924 39.2074 13.2257C39.2183 13.2591 39.2213 13.2945 39.2164 13.3292V14.5127C39.2164 14.7152 39.1271 14.8218 38.948 14.8324C38.3685 14.8857 37.7044 14.931 36.9559 14.9684C36.2074 15.0057 35.4328 15.0244 34.6319 15.0244C34.2094 15.0322 33.7873 14.9892 33.3747 14.8963C33.0698 14.8299 32.7853 14.6903 32.545 14.4892C32.3294 14.295 32.1731 14.0426 32.0942 13.7617C31.997 13.4023 31.952 13.0306 31.9603 12.6581L31.9618 3.89286ZM43.1377 14.5603C43.1429 14.5972 43.1397 14.6349 43.128 14.6703C43.1164 14.7057 43.0966 14.7378 43.0706 14.7642C43.0445 14.7906 43.0128 14.8105 42.9778 14.8222C42.9428 14.834 42.9058 14.8374 42.8693 14.8321H40.9561C40.9196 14.8374 40.8825 14.834 40.8476 14.8222C40.8126 14.8105 40.7808 14.7906 40.7548 14.7642C40.7287 14.7378 40.709 14.7057 40.6973 14.6703C40.6857 14.6349 40.6821 14.5972 40.6873 14.5603V3.92479C40.6873 3.73292 40.777 3.637 40.9561 3.637H42.8693C43.0486 3.637 43.1379 3.73292 43.1377 3.92479V14.5603ZM50.5358 13.0728C50.9366 13.0728 51.3056 13.0647 51.6428 13.0486C51.98 13.0326 52.3278 12.9979 52.686 12.9446C52.7172 12.9372 52.7496 12.9378 52.7806 12.9461C52.8116 12.9544 52.8403 12.9704 52.8638 12.9925C52.8872 13.0146 52.905 13.0423 52.9154 13.073C52.9258 13.1037 52.9284 13.1365 52.9233 13.1686V14.368C52.9233 14.5066 52.8391 14.6026 52.6703 14.6558C52.2578 14.7849 51.8343 14.8759 51.4055 14.9276C50.9496 14.9896 50.4904 15.0216 50.0304 15.0235C49.2914 15.0439 48.5555 14.9189 47.8636 14.6555C47.3019 14.4312 46.8064 14.0645 46.425 13.5907C46.0383 13.0884 45.7639 12.5073 45.6204 11.8874C45.4432 11.1388 45.3581 10.371 45.3673 9.6013V8.86567C45.3582 8.09644 45.4405 7.32887 45.6125 6.57953C45.7511 5.96056 46.021 5.37941 46.4033 4.87622C46.7805 4.40146 47.2737 4.03445 47.834 3.81144C48.5259 3.54795 49.2618 3.42296 50.0008 3.44345C50.8601 3.44977 51.7133 3.59004 52.5303 3.85934C52.6027 3.87771 52.6682 3.91661 52.7196 3.97146C52.7538 4.0234 52.7705 4.08516 52.767 4.14747V5.29899C52.7722 5.33101 52.7695 5.36384 52.7592 5.39456C52.7488 5.42527 52.7312 5.45292 52.7078 5.47507C52.6843 5.49721 52.6556 5.51317 52.6246 5.52151C52.5936 5.52986 52.5613 5.53032 52.53 5.52289C52.2347 5.48113 51.9132 5.44908 51.5654 5.42675C51.2177 5.40441 50.8648 5.39397 50.5065 5.39544C50.0731 5.38311 49.6412 5.45368 49.2336 5.6034C48.8997 5.73543 48.6113 5.96337 48.4038 6.25917C48.1767 6.59861 48.0232 6.98282 47.9534 7.38657C47.857 7.9167 47.8119 8.45506 47.8189 8.99404V9.48979C47.8116 10.029 47.8591 10.5676 47.9607 11.097C48.0345 11.4999 48.194 11.8818 48.4277 12.2165C48.6431 12.5093 48.9362 12.7339 49.2732 12.8642C49.6781 13.0126 50.1068 13.0831 50.5374 13.0721L50.5358 13.0728ZM62.6926 3.6367C62.7277 3.63326 62.7629 3.64056 62.7939 3.65764C62.8249 3.67472 62.8502 3.70081 62.8664 3.73253C62.8816 3.76653 62.8867 3.80421 62.8812 3.8411C62.8757 3.878 62.86 3.9125 62.8356 3.94046L59.4524 9.0263L63.2781 14.544C63.2986 14.5694 63.3115 14.6001 63.3156 14.6326C63.3198 14.665 63.3151 14.698 63.3017 14.7279C63.2869 14.7629 63.2611 14.7921 63.2283 14.8109C63.1954 14.8297 63.1574 14.837 63.12 14.8318H60.8913C60.7993 14.8364 60.7074 14.8201 60.6225 14.7839C60.5496 14.7427 60.4897 14.6817 60.449 14.6079L57.2079 9.61789V14.5597C57.2131 14.5966 57.2099 14.6342 57.1982 14.6696C57.1866 14.7049 57.1669 14.7371 57.1408 14.7634C57.1147 14.7898 57.083 14.8097 57.048 14.8215C57.0131 14.8333 56.976 14.8367 56.9395 14.8315H55.026C54.9895 14.8367 54.9524 14.8333 54.9175 14.8215C54.8825 14.8097 54.8507 14.7898 54.8247 14.7634C54.7986 14.7371 54.7792 14.7049 54.7676 14.6696C54.7559 14.6342 54.7524 14.5966 54.7576 14.5597V3.92417C54.7576 3.73231 54.8471 3.63639 55.026 3.63639H56.9395C57.1184 3.63639 57.2077 3.73231 57.2079 3.92417V8.4338L60.2271 3.82772C60.2676 3.76802 60.3221 3.71929 60.3856 3.68582C60.449 3.65234 60.5196 3.63513 60.5911 3.63574L62.6926 3.6367Z" fill="white"/>
</svg>
