<svg width="20" height="20" viewBox="0 0 20 20" fill="none" xmlns="http://www.w3.org/2000/svg">
<path d="M1 4.6C1 2.61177 2.61177 1 4.6 1H15.4C17.3882 1 19 2.61177 19 4.6V15.4C19 17.3882 17.3882 19 15.4 19H4.6C2.61177 19 1 17.3882 1 15.4V4.6Z" stroke="#222222" stroke-width="2" stroke-linecap="round" stroke-linejoin="round"/>
<path d="M11.2977 19.3325C11.179 19.3325 11.078 19.2909 10.9949 19.2078C10.9118 19.1247 10.8702 19.0237 10.8702 18.905V11.8066H9.42748C9.30874 11.8066 9.2078 11.7651 9.12468 11.6819C9.04156 11.5869 9 11.4801 9 11.3613V10.3461C9 10.2273 9.04156 10.1264 9.12468 10.0433C9.2078 9.96013 9.30874 9.91857 9.42748 9.91857H10.8702V8.18829C10.8702 6.06276 12.0339 5 14.3613 5H15.5725C15.7031 5 15.8041 5.04156 15.8753 5.12468C15.9584 5.19593 16 5.29686 16 5.42748V6.44275C16 6.57337 15.9584 6.68024 15.8753 6.76336C15.7922 6.84648 15.6913 6.88804 15.5725 6.88804H14.4326C13.9695 6.88804 13.6429 7.00085 13.4529 7.22646C13.2748 7.45208 13.1858 7.80237 13.1858 8.27735V9.91857H15.3944C15.525 9.91857 15.626 9.96013 15.6972 10.0433C15.7803 10.1145 15.8219 10.2154 15.8219 10.3461V11.3613C15.8219 11.4919 15.7803 11.5988 15.6972 11.6819C15.6141 11.7651 15.5131 11.8066 15.3944 11.8066H13.1858V18.905C13.1858 19.0237 13.1442 19.1247 13.0611 19.2078C12.9779 19.2909 12.877 19.3325 12.7583 19.3325H11.2977Z" fill="#222222"/>
</svg>
