<svg width="74" height="13" viewBox="0 0 74 13" fill="none" xmlns="http://www.w3.org/2000/svg">
<path d="M32.173 9.49014V6.81082C32.173 5.80117 31.5291 5.12153 30.4927 5.11261C29.9469 5.10369 29.3851 5.27315 28.9927 5.87252C28.6983 5.3998 28.2328 5.11261 27.5818 5.11261C27.1269 5.11261 26.6792 5.24639 26.3314 5.74765V5.21964H25.4021V9.49014H26.3403V7.12299C26.3403 6.38091 26.7506 5.98847 27.3856 5.98847C28.0027 5.98847 28.3149 6.38983 28.3149 7.11407V9.49014H29.2531V7.12299C29.2531 6.38091 29.6812 5.98847 30.2983 5.98847C30.9333 5.98847 31.2365 6.38983 31.2365 7.11407V9.49014H32.173ZM46.0572 5.21964H44.5393V3.92457H43.601V5.21964H42.7342V6.06874H43.601V8.01669C43.601 9.0085 43.9845 9.59895 45.0833 9.59895C45.4846 9.59895 45.9501 9.47409 46.2445 9.26894L45.9769 8.47335C45.7004 8.6339 45.3954 8.71417 45.1546 8.71417C44.6909 8.71417 44.5375 8.42876 44.5375 7.99885V6.06874H46.0554V5.21964H46.0572ZM53.9821 5.11261C53.4452 5.11261 53.0974 5.36234 52.8566 5.73873V5.21964H51.9362V9.49014H52.8655V7.09623C52.8655 6.38983 53.1687 5.99739 53.777 5.99739C53.9642 5.99739 54.1604 6.02415 54.3584 6.10442L54.6438 5.22856C54.4369 5.14828 54.1694 5.11261 53.9821 5.11261ZM42.0011 5.56035C41.5551 5.26602 40.938 5.11439 40.2584 5.11439C39.1775 5.11439 38.4801 5.6317 38.4801 6.48081C38.4801 7.17829 38.9973 7.60641 39.9534 7.7402L40.3904 7.80263C40.8988 7.87398 41.1413 8.00777 41.1413 8.24859C41.1413 8.5786 40.8024 8.76769 40.1674 8.76769C39.5235 8.76769 39.0598 8.56254 38.7476 8.32173L38.3106 9.04596C38.819 9.42057 39.4629 9.60074 40.1603 9.60074C41.3928 9.60074 42.1081 9.01921 42.1081 8.20756C42.1081 7.45657 41.5444 7.06412 40.6169 6.93034L40.1799 6.8679C39.7786 6.81439 39.4557 6.73411 39.4557 6.4487C39.4557 6.13653 39.759 5.94744 40.2691 5.94744C40.8149 5.94744 41.3411 6.15258 41.5997 6.31313L42.0011 5.56035ZM66.8906 5.11261C66.3537 5.11261 66.0059 5.36234 65.7651 5.73873V5.21964H64.8447V9.49014H65.774V7.09623C65.774 6.38983 66.0772 5.99739 66.6855 5.99739C66.8728 5.99739 67.069 6.02415 67.267 6.10442L67.5523 5.22856C67.3472 5.14828 67.0779 5.11261 66.8906 5.11261ZM54.9203 7.35489C54.9203 8.64995 55.8228 9.59717 57.1981 9.59717C57.842 9.59717 58.2701 9.45446 58.7338 9.08699L58.2879 8.336C57.9401 8.58574 57.5726 8.71952 57.1713 8.71952C56.4293 8.7106 55.8853 8.17367 55.8853 7.3531C55.8853 6.53076 56.4311 5.99561 57.1713 5.98669C57.5726 5.98669 57.9401 6.12047 58.2879 6.37021L58.7338 5.61922C58.2701 5.25353 57.8402 5.10904 57.1981 5.10904C55.8211 5.11261 54.9203 6.05982 54.9203 7.35489ZM63.6211 7.35489V5.21964H62.6918V5.73873C62.3975 5.35521 61.9498 5.11261 61.3433 5.11261C60.1465 5.11261 59.2083 6.0509 59.2083 7.35489C59.2083 8.65887 60.1465 9.59717 61.3433 9.59717C61.9516 9.59717 62.3975 9.35635 62.6918 8.97104V9.48836H63.6211V7.35489ZM60.1643 7.35489C60.1643 6.60389 60.6548 5.98847 61.4593 5.98847C62.2281 5.98847 62.7453 6.57892 62.7453 7.35489C62.7453 8.13086 62.2281 8.72131 61.4593 8.72131C60.6548 8.72309 60.1643 8.10588 60.1643 7.35489ZM48.9521 5.11261C47.7017 5.11261 46.8259 6.02415 46.8259 7.35489C46.8259 8.71239 47.7374 9.59717 49.0145 9.59717C49.6584 9.59717 50.247 9.43662 50.7661 8.9978L50.3113 8.30924C49.9545 8.59465 49.4979 8.7552 49.0698 8.7552C48.4705 8.7552 47.9265 8.4787 47.7927 7.70987H50.9641C50.973 7.59392 50.9819 7.47797 50.9819 7.3531C50.9712 6.02415 50.1489 5.11261 48.9521 5.11261ZM48.9342 5.94387C49.5336 5.94387 49.9171 6.31848 50.0152 6.98028H47.7998C47.8979 6.36308 48.2725 5.94387 48.9342 5.94387ZM72.2417 7.35489V3.50537H71.3124V5.73873C71.018 5.35521 70.5703 5.11261 69.9639 5.11261C68.767 5.11261 67.8288 6.0509 67.8288 7.35489C67.8288 8.65887 68.767 9.59717 69.9639 9.59717C70.5721 9.59717 71.018 9.35635 71.3124 8.97104V9.48836H72.2417V7.35489ZM73.3279 9.0977C73.3654 9.0977 73.4011 9.10483 73.4349 9.1191C73.4688 9.13337 73.4974 9.15299 73.5223 9.17797C73.5473 9.20294 73.5669 9.23148 73.5812 9.26359C73.5955 9.2957 73.6026 9.33138 73.6026 9.36884C73.6026 9.4063 73.5955 9.44019 73.5812 9.47408C73.5669 9.50619 73.5473 9.53474 73.5223 9.55971C73.4974 9.58468 73.4688 9.60431 73.4349 9.61858C73.4011 9.63285 73.3654 9.63998 73.3279 9.63998C73.2887 9.63998 73.253 9.63285 73.2191 9.61858C73.1852 9.60431 73.1567 9.58468 73.1317 9.55971C73.1067 9.53474 73.0871 9.50619 73.0729 9.47408C73.0586 9.44198 73.0514 9.4063 73.0514 9.36884C73.0514 9.33138 73.0586 9.2957 73.0729 9.26359C73.0871 9.2297 73.1067 9.20116 73.1317 9.17797C73.1567 9.15299 73.1852 9.13337 73.2191 9.1191C73.253 9.10483 73.2887 9.0977 73.3279 9.0977ZM73.3279 9.57933C73.3565 9.57933 73.385 9.57398 73.41 9.56328C73.4349 9.55257 73.4581 9.53652 73.476 9.51868C73.4956 9.49906 73.5099 9.47765 73.5206 9.4509C73.5313 9.42592 73.5366 9.39738 73.5366 9.36884C73.5366 9.3403 73.5313 9.31176 73.5206 9.28678C73.5099 9.26181 73.4956 9.23862 73.476 9.219C73.4563 9.19937 73.4349 9.1851 73.41 9.1744C73.385 9.1637 73.3582 9.15835 73.3279 9.15835C73.2976 9.15835 73.2708 9.1637 73.2441 9.1744C73.2173 9.1851 73.1959 9.19937 73.1763 9.219C73.1567 9.23862 73.1424 9.26002 73.1317 9.28678C73.121 9.31176 73.1157 9.3403 73.1157 9.36884C73.1157 9.39738 73.121 9.42592 73.1317 9.4509C73.1424 9.47587 73.1567 9.49906 73.1763 9.51868C73.1959 9.5383 73.2173 9.55257 73.2441 9.56328C73.2708 9.57398 73.2994 9.57933 73.3279 9.57933ZM73.344 9.2404C73.3761 9.2404 73.4011 9.24754 73.4189 9.26181C73.4367 9.27608 73.4456 9.2957 73.4456 9.32068C73.4456 9.34208 73.4385 9.35814 73.4242 9.37241C73.41 9.38668 73.3904 9.39381 73.3654 9.39738L73.4474 9.49192H73.3832L73.3065 9.39738H73.2815V9.49192H73.228V9.2404H73.344ZM73.2815 9.28857V9.35635H73.344C73.3582 9.35635 73.3689 9.35278 73.3779 9.34743C73.3868 9.34208 73.3904 9.33316 73.3904 9.32246C73.3904 9.31176 73.3868 9.30284 73.3779 9.29749C73.3689 9.29213 73.3582 9.28857 73.344 9.28857H73.2815ZM68.7849 7.35489C68.7849 6.60389 69.2754 5.98847 70.0798 5.98847C70.8486 5.98847 71.3659 6.57892 71.3659 7.35489C71.3659 8.13086 70.8486 8.72131 70.0798 8.72131C69.2772 8.72309 68.7849 8.10588 68.7849 7.35489ZM37.4099 7.35489V5.21964H36.4806V5.73873C36.1863 5.35521 35.7386 5.11261 35.1321 5.11261C33.9352 5.11261 32.997 6.0509 32.997 7.35489C32.997 8.65887 33.9352 9.59717 35.1321 9.59717C35.7403 9.59717 36.1863 9.35635 36.4806 8.97104V9.48836H37.4099V7.35489ZM33.9513 7.35489C33.9513 6.60389 34.4418 5.98847 35.2463 5.98847C36.015 5.98847 36.5323 6.57892 36.5323 7.35489C36.5323 8.13086 36.015 8.72131 35.2463 8.72131C34.4436 8.72309 33.9513 8.10588 33.9513 7.35489Z" fill="#222222"/>
<path d="M14.2249 1.38867H8.53735V11.6099H14.2249V1.38867Z" fill="#F6F3F1"/>
<path d="M14.2249 1.38867H8.53735V11.6099H14.2249V1.38867Z" fill="#222222" fill-opacity="0.75"/>
<path d="M8.89849 6.5C8.89849 4.42722 9.86988 2.58014 11.3811 1.39028C10.2761 0.52 8.88043 0 7.36377 0C3.77432 0 0.86377 2.91056 0.86377 6.5C0.86377 10.0894 3.77432 13 7.36377 13C8.88043 13 10.2743 12.48 11.3811 11.6097C9.86988 10.4199 8.89849 8.57278 8.89849 6.5Z" fill="#222222"/>
<path d="M21.8968 6.5C21.8968 10.0894 18.9862 13 15.3968 13C13.8801 13 12.4862 12.48 11.3794 11.6097C12.8906 10.4199 13.862 8.57278 13.862 6.5C13.862 4.42722 12.8906 2.58014 11.3794 1.39028C12.4844 0.52 13.8801 0 15.3968 0C18.988 0 21.8968 2.91056 21.8968 6.5Z" fill="#F6F3F1"/>
<path d="M21.8968 6.5C21.8968 10.0894 18.9862 13 15.3968 13C13.8801 13 12.4862 12.48 11.3794 11.6097C12.8906 10.4199 13.862 8.57278 13.862 6.5C13.862 4.42722 12.8906 2.58014 11.3794 1.39028C12.4844 0.52 13.8801 0 15.3968 0C18.988 0 21.8968 2.91056 21.8968 6.5Z" fill="#222222" fill-opacity="0.5"/>
<path d="M21.2772 10.5282V10.3187H21.3621V10.2754H21.1472V10.3187H21.2303V10.5282H21.2772ZM21.6943 10.5282V10.2754H21.6293L21.5535 10.4487L21.4776 10.2754H21.4108V10.5282H21.4578V10.3386L21.5282 10.5029H21.5769L21.6474 10.3386V10.53H21.6943V10.5282Z" fill="white"/>
</svg>
