<svg width="62" height="18" viewBox="0 0 62 18" fill="none" xmlns="http://www.w3.org/2000/svg">
<path fill-rule="evenodd" clip-rule="evenodd" d="M60.8699 9.44941C61.3336 8.68504 61.2896 7.69876 60.8527 7.07296C60.5175 6.59151 58.1105 3.57607 57.3047 2.75625C56.3556 1.79015 55.5293 1.31567 54.6007 1.31567H34.774C32.9797 1.31567 32.3726 1.91089 32.3726 3.97011V12.149C32.3726 14.1652 32.5311 15.057 35.1587 15.057H54.6007C55.5293 15.057 56.4727 14.3248 57.1717 13.5936C57.978 12.7518 60.4559 10.1321 60.8699 9.44941ZM36.7784 4.42338V4.47723C35.9676 4.93766 35.0906 5.46371 34.2997 6.5959V4.43436C34.2997 4.10953 34.3235 3.90047 34.7012 3.90047H36.326C36.7564 3.90047 36.7784 4.16041 36.7784 4.42338ZM47.6784 12.1717V12.2877C47.6784 12.2984 47.6787 12.3103 47.679 12.323C47.6829 12.4795 47.6902 12.7744 47.2036 12.7746H45.5116C45.097 12.7746 45.1075 12.4334 45.1117 12.2969C45.1121 12.2852 45.1124 12.2751 45.1124 12.2668V11.4022H45.1141V7.19473C45.1144 6.61479 45.0325 6.2016 44.8686 5.95517C44.7046 5.70875 44.4374 5.58553 44.0669 5.58553C43.2658 5.58553 42.695 6.32657 42.3633 6.7571C42.3222 6.81052 42.2847 6.85916 42.2509 6.90101V12.1718H42.249V12.2879C42.249 12.2985 42.2493 12.3104 42.2496 12.3231C42.2535 12.4796 42.2607 12.7744 41.7742 12.7744H40.1042C39.69 12.7744 39.7006 12.4334 39.7049 12.2968C39.7053 12.2851 39.7056 12.2749 39.7056 12.2665V11.402H39.7076V7.1945C39.7069 6.61456 39.6265 6.20138 39.4664 5.95495C39.3062 5.70851 39.0443 5.5853 38.6806 5.5853C37.8212 5.5853 37.2613 6.35557 36.9516 6.78173C36.9198 6.82543 36.8907 6.86551 36.8641 6.90078V12.2877C36.8641 12.2984 36.8644 12.3103 36.8648 12.323C36.8686 12.4795 36.8759 12.7742 36.3897 12.7742H34.6981C34.2838 12.7742 34.2944 12.4333 34.2987 12.2967C34.299 12.285 34.2993 12.2748 34.2993 12.2664V8.9357C34.2993 6.94207 36.5499 4.99638 37.0469 4.56673C37.094 4.52607 37.1253 4.49898 37.1375 4.48672C37.7698 3.96604 38.6618 3.69696 39.4291 3.69696C40.092 3.697 40.6318 3.82387 41.0484 4.07758C41.4649 4.33128 41.7765 4.72635 41.9831 5.26277C42.4035 4.76915 42.8417 4.38473 43.2978 4.10953C43.7524 3.8348 44.2744 3.69196 44.8054 3.69696C46.7215 3.69673 47.6796 4.78748 47.6796 6.96921V12.1717H47.6784ZM53.1669 12.6976C54.952 12.6976 56.3928 11.7924 56.9942 10.1726V10.1724C57.0347 10.0646 56.9325 9.83893 56.7018 9.8391H55.2884C55.2884 9.8391 54.9418 9.82367 54.7727 10.1011C54.3838 10.7387 53.9373 11.064 53.1835 11.064C51.9477 11.064 51.2476 10.2799 51.215 8.82628H56.7018C57.1341 8.82628 57.2351 8.52027 57.222 8.17389C57.1192 5.46302 55.5003 3.78013 53.0864 3.78013C50.6462 3.78013 48.8731 5.6746 48.8731 8.28822C48.8731 10.9337 50.5811 12.6976 53.1669 12.6976ZM51.215 7.35709C51.3452 6.18053 52.0607 5.46199 53.0864 5.46199C54.2405 5.46199 54.7938 6.32796 54.8915 7.35709H51.215Z" fill="white"/>
<path fill-rule="evenodd" clip-rule="evenodd" d="M10.4152 1.77681C10.1978 1.4301 9.91591 1.1285 9.58475 0.888449C9.2536 0.655538 8.88994 0.472919 8.50545 0.346517C8.0784 0.207274 7.63732 0.115541 7.19023 0.0729783C6.67873 0.0226261 6.16506 -0.00170035 5.65114 9.22787e-05H1.14717C0.742172 9.22787e-05 0.317644 0.266372 0.317644 0.768515V8.07948C0.888194 9.29797 1.9996 10.5916 3.26319 11.2098V9.75987C3.26319 8.99476 3.83876 8.82384 4.07684 8.82384H5.40856C7.24294 8.82384 8.64301 8.4382 9.6088 7.66697C10.5746 6.89683 11.0574 5.75289 11.0574 4.23511C11.0602 3.79656 11.0093 3.35931 10.9061 2.9331C10.8035 2.52446 10.6379 2.13435 10.4152 1.77681ZM7.79059 5.53152C7.63509 5.80171 7.40312 6.01974 7.12405 6.15819C6.82155 6.30265 6.49479 6.38931 6.16055 6.41372C5.79654 6.44619 5.42064 6.46249 5.03285 6.46254H3.76732C3.45775 6.46254 3.26319 6.21027 3.26319 5.83812V2.84907C3.26319 2.51385 3.4815 2.37322 3.74328 2.37322H5.03285C5.45293 2.37322 5.84686 2.38535 6.21468 2.40963C6.54573 2.42475 6.87084 2.50332 7.17236 2.6411C7.4411 2.76916 7.66353 2.97755 7.80898 3.23751C7.96225 3.50486 8.03889 3.88215 8.039 4.36939C8.039 4.86411 7.9562 5.25149 7.79059 5.53152ZM3.26319 11.6823C1.87345 11.1264 0.94176 10.4633 0.317644 9.80589V13.3353C0.317644 13.3353 0.266248 13.9109 0.825889 13.9109H2.79086C3.32989 13.9109 3.26342 13.3353 3.26342 13.3353V11.6823H3.26319ZM31.1107 3.84615H29.3472C28.9888 3.84615 28.7526 3.99696 28.6105 4.39152C28.4684 4.78608 26.5992 9.99745 26.5992 9.99745C26.5992 9.99745 24.8111 4.89372 24.6704 4.49853C24.5297 4.10334 24.2986 3.84615 23.8823 3.84615H22.2619C21.6903 3.84615 21.6903 4.29565 21.7612 4.47389C21.8187 4.61795 24.0377 10.7065 24.8829 13.0259C25.0822 13.5736 25.1609 13.7383 25.1671 13.9412C25.1732 14.1441 24.9672 14.57 24.8248 14.8145C24.7594 14.926 24.6843 15.0317 24.6005 15.13C26.2573 14.6334 28.167 12.8315 29.1546 10.8793C30.1311 8.15871 31.4188 4.56484 31.4747 4.381C31.5645 4.08322 31.5636 3.84615 31.1107 3.84615ZM23.3237 15.6477C23.1706 15.645 23.0178 15.634 22.866 15.6146C22.6801 15.59 22.3322 15.6247 22.3322 15.9297V17.2927C22.3322 17.8129 22.5807 17.8476 22.7175 17.8785C23.129 17.9643 23.5487 18.0049 23.969 17.9995C24.5262 17.9995 25.0109 17.8981 25.4233 17.6952C25.8397 17.4889 26.2108 17.2013 26.5147 16.8494C26.8497 16.4576 27.1328 16.0241 27.357 15.5597C27.6032 15.0608 27.8395 14.5112 28.066 13.9108C28.066 13.9108 28.1631 13.6395 28.323 13.195C27.8365 13.6866 25.5438 15.863 23.3237 15.6477ZM20.6754 5.46423C20.5797 5.23642 20.449 5.02499 20.288 4.83764C20.1276 4.6578 19.944 4.50015 19.742 4.36888C19.524 4.22702 19.2928 4.10677 19.0516 4.00982C18.8052 3.91352 18.5519 3.83631 18.2938 3.77887C18.0003 3.71454 17.7026 3.67183 17.4029 3.6511C17.0793 3.62698 16.7156 3.61482 16.3116 3.61463C13.6401 3.61463 12.1189 4.45987 11.748 6.15036C11.6274 6.67492 12.1457 6.70573 12.1457 6.70573H13.7892C14.2182 6.70573 14.1998 6.56733 14.408 6.17894C14.483 5.9676 14.6179 5.78273 14.7963 5.64699C15.1117 5.40377 15.5845 5.28214 16.2146 5.2821C16.8208 5.2821 17.2612 5.39962 17.5359 5.63464C17.8105 5.86968 17.9721 6.22668 18.0208 6.70573C18.0208 7.26121 17.8477 7.63181 17.1769 7.63181C15.5416 7.57236 13.7842 7.75758 12.7945 8.32564C11.8047 8.89369 11.2452 10.0043 11.2452 11.1969C11.2452 11.6834 11.332 12.1093 11.5059 12.4748C11.6743 12.8331 11.9233 13.1475 12.2333 13.3934C12.5623 13.6503 12.9393 13.8386 13.3422 13.9472C13.8002 14.0729 14.2733 14.1345 14.7481 14.1301C15.4594 14.1301 16.0878 14.0409 16.6333 13.8623C17.1787 13.684 18.0228 13.0962 18.1303 13.0105V13.3238C18.1303 13.6343 18.2246 13.9112 18.5948 13.9112H20.5059C20.8927 13.9112 20.9787 13.6343 20.9787 13.2935V7.39966C20.9821 7.03329 20.9578 6.6672 20.9061 6.30448C20.8651 6.01574 20.7876 5.73339 20.6754 5.46423ZM18.0694 11.2429C18.0694 11.2429 17.5759 12.2691 15.8146 12.2691C15.33 12.2691 14.9361 12.1596 14.6328 11.9407C14.3294 11.7217 14.1779 11.3809 14.1781 10.9183C14.1781 10.3175 14.4246 9.89341 14.9178 9.64605C15.4105 9.39887 16.3968 9.25767 17.136 9.27499C17.8751 9.29231 18.0694 9.75987 18.0694 10.0827V11.2432V11.2429Z" fill="white"/>
</svg>
