<svg width="56" height="18" viewBox="0 0 56 18" fill="none" xmlns="http://www.w3.org/2000/svg">
<path d="M24.221 17.6978H19.7002L22.5298 0.311646H27.0506L24.221 17.6978Z" fill="white"/>
<path d="M15.8944 0.311536L11.5827 12.2697L11.0716 9.69297L9.54758 1.87433C9.54758 1.87433 9.36173 0.306885 7.40099 0.306885H0.282852L0.199219 0.599909C0.199219 0.599909 2.37834 1.05572 4.92916 2.58596L8.85993 17.693H13.5666L20.7638 0.311536H15.8944Z" fill="white"/>
<path d="M51.4674 17.6978H55.6212L51.9971 0.311646H48.359C46.6817 0.311646 46.2728 1.60933 46.2728 1.60933L39.531 17.7025H44.2424L45.1856 15.1211H50.9331L51.4674 17.6978ZM46.4912 11.549L48.8655 5.04192L50.2036 11.549H46.4912Z" fill="white"/>
<path d="M39.8824 4.49302L40.5282 0.75814C40.5282 0.75814 38.5349 0 36.4626 0C34.2185 0 28.8891 0.981395 28.8891 5.75814C28.8891 10.2512 35.1431 10.307 35.1431 12.6651C35.1431 15.0233 29.5349 14.6047 27.681 13.1163L27.0073 17.0186C27.0073 17.0186 29.0285 18 32.1137 18C35.1988 18 39.8545 16.4 39.8545 12.0465C39.8545 7.52558 33.5447 7.10232 33.5447 5.13953C33.5447 3.17209 37.9495 3.42326 39.8824 4.49302Z" fill="white"/>
<path d="M11.0763 9.69293L9.55228 1.87433C9.55228 1.87433 9.36643 0.306885 7.40567 0.306885H0.282853L0.199219 0.599908C0.199219 0.599908 3.62356 1.31154 6.91316 3.972C10.0494 6.52084 11.0763 9.69293 11.0763 9.69293Z" fill="white"/>
</svg>
