<svg width="24" height="24" viewBox="0 0 24 24" fill="none" xmlns="http://www.w3.org/2000/svg">
<path d="M12 20.25C12 20.25 2.625 15 2.625 8.62499C2.62519 7.49824 3.01561 6.40634 3.72989 5.53491C4.44416 4.66349 5.4382 4.06634 6.54299 3.845C7.64778 3.62365 8.79514 3.79177 9.78999 4.32077C10.7848 4.84977 11.5658 5.707 12 6.74671L12 6.74672C12.4342 5.70701 13.2152 4.84978 14.21 4.32078C15.2049 3.79178 16.3522 3.62365 17.457 3.845C18.5618 4.06634 19.5558 4.66349 20.2701 5.53491C20.9844 6.40633 21.3748 7.49824 21.375 8.62499C21.375 15 12 20.25 12 20.25Z" stroke="#00554C" stroke-width="2" stroke-linecap="round" stroke-linejoin="round"/>
</svg>
