<svg width="62" height="20" viewBox="0 0 62 20" fill="none" xmlns="http://www.w3.org/2000/svg">
<g clip-path="url(#clip0)">
<path d="M4.09517 5.02189L8.31511 15.6657L1.87996 7.63397L4.09517 5.02189ZM15.5092 5.02189L17.7248 7.63397L11.2904 15.6657L15.5092 5.02189ZM5.39297 4.35284H14.2117L9.80292 15.4766L5.39297 4.35284ZM15.618 2.9068H3.98746L0 7.60869L9.80292 19.8434L19.6058 7.60869L15.618 2.9068Z" fill="white"/>
<path d="M3.97949 1.44642V0H6.59633V1.44642H3.97949Z" fill="white"/>
<path d="M8.48047 1.44642V0H11.0973V1.44642H8.48047Z" fill="white"/>
<path d="M12.9805 1.44642V0H15.5973V1.44642H12.9805Z" fill="white"/>
<path d="M25.1475 3.35132H33.1512V4.78528H26.7339V6.45019H32.1413V7.8849H26.7195V11.3574H25.1475V3.35132Z" fill="white"/>
<path d="M43.1287 9.92264C44.5999 9.92264 46.0274 9.53434 46.9509 8.40151V10.4962C45.8685 11.2283 44.5422 11.3574 43.1287 11.3574C39.9999 11.3574 37.4756 9.72113 37.4756 7.35434C37.4756 4.98641 39.9999 3.35132 43.1287 3.35132C44.5422 3.35132 45.8833 3.47962 46.9509 4.2117V6.32113C46.0422 5.18755 44.5995 4.78528 43.1287 4.78528C40.9078 4.78528 39.12 5.76151 39.12 7.35434C39.12 8.94641 40.9078 9.92264 43.1287 9.92264Z" fill="white"/>
<path d="M52.2852 11.3574V3.35132L60.086 8.78906V3.3517H61.658V11.3577L53.8564 5.97736V11.3577L52.2852 11.3574Z" fill="white"/>
<path d="M27.7218 15.5441C27.7218 16.183 27.1776 16.4924 26.5166 16.4924C25.7588 16.4924 25.1475 16.0238 25.1475 15.4509C25.1475 14.8751 25.7588 14.4075 26.5166 14.4075C26.8552 14.4075 27.1822 14.5158 27.4419 14.6939V15.2004C27.2163 14.9136 26.8632 14.7822 26.5166 14.7822C25.9921 14.7822 25.5832 15.0807 25.5832 15.4513C25.5832 15.8226 25.9921 16.1166 26.5162 16.1166C26.8397 16.1166 27.2053 16.0392 27.2785 15.7996H26.6997V15.4279H27.7218V15.5441Z" fill="white"/>
<path d="M29.9138 14.8596H30.653C30.9219 14.8596 31.0228 14.926 31.0228 15.0453C31.0228 15.166 30.9219 15.2355 30.653 15.2355H29.9138V14.8596ZM29.9138 15.6136H30.595L31.1115 16.423H31.597C31.435 16.1709 31.2094 15.8381 31.0383 15.5717C31.2716 15.4977 31.454 15.343 31.454 15.0453C31.454 14.6166 31.0463 14.4804 30.6841 14.4804H29.502V16.423H29.9138V15.6136Z" fill="white"/>
<path d="M33.5496 15.4513C33.5496 15.0841 33.9619 14.7902 34.4788 14.7902C34.9919 14.7902 35.4084 15.0841 35.4084 15.4513C35.4084 15.8147 34.9919 16.109 34.4784 16.109C33.9619 16.109 33.5496 15.8147 33.5496 15.4513ZM33.1143 15.4513C33.1143 16.0238 33.7286 16.4928 34.4784 16.4928C35.2331 16.4928 35.8399 16.0238 35.8399 15.4513C35.8399 14.8796 35.2331 14.4075 34.4784 14.4075C33.7286 14.4075 33.1143 14.8796 33.1143 15.4513Z" fill="white"/>
<path d="M39.2606 14.4804H39.6808V15.5332C39.6808 16.194 39.1442 16.4925 38.6117 16.4925C38.0785 16.4925 37.5498 16.1943 37.5498 15.5328V14.4804H37.9621V15.4823C37.9621 15.9125 38.2882 16.1087 38.6117 16.1087C38.9341 16.1087 39.2606 15.9125 39.2606 15.4823V14.4804Z" fill="white"/>
<path d="M41.9625 14.8596H42.6968C42.966 14.8596 43.0703 14.926 43.0703 15.0453C43.0703 15.166 42.966 15.2355 42.6968 15.2355H41.9625V14.8596ZM41.9625 15.6136H42.7283C43.0904 15.6136 43.4981 15.4789 43.4981 15.0453C43.4981 14.6166 43.0904 14.4804 42.7283 14.4804H41.5469V16.423H41.9625V15.6136Z" fill="white"/>
</g>
<defs>
<clipPath id="clip0">
<rect width="61.8182" height="20" fill="white"/>
</clipPath>
</defs>
</svg>
