<svg width="62" height="18" viewBox="0 0 62 18" fill="none" xmlns="http://www.w3.org/2000/svg">
<path fill-rule="evenodd" clip-rule="evenodd" d="M60.8713 9.44939C61.3351 8.68503 61.2911 7.69874 60.8542 7.07295C60.519 6.5915 58.112 3.57605 57.3062 2.75624C56.3571 1.79014 55.5308 1.31566 54.6022 1.31566H34.7755C32.9811 1.31566 32.374 1.91087 32.374 3.9701V12.149C32.374 14.1652 32.5326 15.057 35.1601 15.057H54.6022C55.5308 15.057 56.4742 14.3248 57.1731 13.5936C57.9795 12.7517 60.4573 10.1321 60.8713 9.44939ZM36.7799 4.42336V4.47722C35.969 4.93764 35.0921 5.46369 34.3011 6.59589V4.43434C34.3011 4.10952 34.325 3.90046 34.7027 3.90046H36.3274C36.7579 3.90046 36.7799 4.1604 36.7799 4.42336ZM47.6799 12.1717V12.2877C47.6799 12.2984 47.6802 12.3103 47.6805 12.323C47.6844 12.4795 47.6916 12.7744 47.2051 12.7746H45.513C45.0984 12.7746 45.109 12.4334 45.1132 12.2969C45.1136 12.2852 45.1139 12.2751 45.1139 12.2667V11.4022H45.1156V7.19472C45.1158 6.61477 45.0339 6.20159 44.87 5.95516C44.7061 5.70873 44.4389 5.58552 44.0684 5.58552C43.2673 5.58552 42.6964 6.32656 42.3648 6.75708C42.3236 6.8105 42.2862 6.85914 42.2524 6.90099V12.1718H42.2505V12.2878C42.2505 12.2985 42.2507 12.3103 42.2511 12.3231C42.2549 12.4796 42.2622 12.7743 41.7756 12.7743H40.1057C39.6915 12.7743 39.7021 12.4334 39.7064 12.2968C39.7067 12.2851 39.707 12.2749 39.707 12.2665V11.402H39.709V7.19449C39.7084 6.61455 39.6279 6.20136 39.4678 5.95493C39.3077 5.7085 39.0458 5.58529 38.6821 5.58529C37.8227 5.58529 37.2628 6.35555 36.9531 6.78171C36.9213 6.82542 36.8922 6.8655 36.8656 6.90076V12.2877C36.8656 12.2984 36.8659 12.3102 36.8662 12.323C36.8701 12.4795 36.8773 12.7742 36.3911 12.7742H34.6996C34.2852 12.7742 34.2959 12.4333 34.3001 12.2967C34.3005 12.285 34.3008 12.2748 34.3008 12.2664V8.93568C34.3008 6.94205 36.5514 4.99636 37.0484 4.56671C37.0954 4.52605 37.1267 4.49897 37.139 4.48671C37.7713 3.96603 38.6633 3.69694 39.4306 3.69694C40.0935 3.69698 40.6333 3.82385 41.0499 4.07756C41.4664 4.33127 41.778 4.72633 41.9846 5.26275C42.4049 4.76913 42.8432 4.38472 43.2993 4.10952C43.7539 3.83478 44.2758 3.69194 44.8069 3.69694C46.723 3.69671 47.681 4.78746 47.681 6.96919V12.1717H47.6799ZM53.1684 12.6976C54.9535 12.6976 56.3943 11.7924 56.9956 10.1725V10.1724C57.0362 10.0646 56.9339 9.83891 56.7032 9.83909H55.2899C55.2899 9.83909 54.9432 9.82365 54.7742 10.1011C54.3853 10.7387 53.9387 11.064 53.1849 11.064C51.9491 11.064 51.249 10.2799 51.2165 8.82627H56.7032C57.1355 8.82627 57.2366 8.52025 57.2235 8.17387C57.1207 5.46301 55.5017 3.78012 53.0878 3.78012C50.6477 3.78012 48.8745 5.67458 48.8745 8.28821C48.8745 10.9337 50.5826 12.6976 53.1684 12.6976ZM51.2165 7.35707C51.3467 6.18051 52.0622 5.46198 53.0878 5.46198C54.242 5.46198 54.7953 6.32795 54.893 7.35707H51.2165Z" fill="#051F1C"/>
<path fill-rule="evenodd" clip-rule="evenodd" d="M10.4162 1.77681C10.1988 1.4301 9.91689 1.1285 9.58573 0.888449C9.25457 0.655538 8.89092 0.472919 8.50642 0.346517C8.07938 0.207274 7.63829 0.115541 7.19121 0.0729783C6.67971 0.0226261 6.16604 -0.00170035 5.65212 9.22787e-05H1.14815C0.743148 9.22787e-05 0.31862 0.266372 0.31862 0.768515V8.07948C0.889171 9.29797 2.00057 10.5916 3.26416 11.2098V9.75987C3.26416 8.99476 3.83974 8.82384 4.07781 8.82384H5.40953C7.24392 8.82384 8.64399 8.4382 9.60977 7.66697C10.5756 6.89683 11.0584 5.75289 11.0584 4.23511C11.0611 3.79656 11.0103 3.35931 10.9071 2.9331C10.8045 2.52446 10.6388 2.13435 10.4162 1.77681ZM7.79157 5.53152C7.63607 5.80171 7.4041 6.01974 7.12502 6.15819C6.82253 6.30265 6.49577 6.38931 6.16152 6.41372C5.79751 6.44619 5.42162 6.46249 5.03383 6.46254H3.7683C3.45872 6.46254 3.26416 6.21027 3.26416 5.83812V2.84907C3.26416 2.51385 3.48248 2.37322 3.74426 2.37322H5.03383C5.4539 2.37322 5.84784 2.38535 6.21566 2.40963C6.54671 2.42475 6.87181 2.50332 7.17333 2.6411C7.44208 2.76916 7.6645 2.97755 7.80995 3.23751C7.96323 3.50486 8.03986 3.88215 8.03998 4.36939C8.03998 4.86411 7.95717 5.25149 7.79157 5.53152ZM3.26416 11.6823C1.87443 11.1264 0.942737 10.4633 0.31862 9.80589V13.3353C0.31862 13.3353 0.267224 13.9109 0.826866 13.9109H2.79184C3.33086 13.9109 3.26439 13.3353 3.26439 13.3353V11.6823H3.26416ZM31.1117 3.84615H29.3482C28.9898 3.84615 28.7536 3.99696 28.6115 4.39152C28.4693 4.78608 26.6001 9.99745 26.6001 9.99745C26.6001 9.99745 24.8121 4.89372 24.6714 4.49853C24.5307 4.10334 24.2996 3.84615 23.8833 3.84615H22.2629C21.6913 3.84615 21.6913 4.29565 21.7622 4.47389C21.8197 4.61795 24.0387 10.7065 24.8839 13.0259C25.0832 13.5736 25.1619 13.7383 25.168 13.9412C25.1742 14.1441 24.9682 14.57 24.8258 14.8145C24.7604 14.926 24.6853 15.0317 24.6014 15.13C26.2583 14.6334 28.168 12.8315 29.1555 10.8793C30.1321 8.15871 31.4198 4.56484 31.4757 4.381C31.5655 4.08322 31.5646 3.84615 31.1117 3.84615ZM23.3247 15.6477C23.1716 15.645 23.0188 15.634 22.8669 15.6146C22.6811 15.59 22.3332 15.6247 22.3332 15.9297V17.2927C22.3332 17.8129 22.5817 17.8476 22.7185 17.8785C23.13 17.9643 23.5496 18.0049 23.97 17.9995C24.5271 17.9995 25.0119 17.8981 25.4243 17.6952C25.8407 17.4889 26.2118 17.2013 26.5156 16.8494C26.8507 16.4576 27.1338 16.0241 27.358 15.5597C27.6042 15.0608 27.8405 14.5112 28.067 13.9108C28.067 13.9108 28.1641 13.6395 28.324 13.195C27.8375 13.6866 25.5448 15.863 23.3247 15.6477ZM20.6764 5.46423C20.5807 5.23642 20.45 5.02499 20.289 4.83764C20.1286 4.6578 19.945 4.50015 19.743 4.36888C19.525 4.22702 19.2938 4.10677 19.0526 4.00982C18.8062 3.91352 18.5529 3.83631 18.2948 3.77887C18.0013 3.71454 17.7036 3.67183 17.4039 3.6511C17.0803 3.62698 16.7165 3.61482 16.3126 3.61463C13.6411 3.61463 12.1199 4.45987 11.749 6.15036C11.6284 6.67492 12.1467 6.70573 12.1467 6.70573H13.7902C14.2192 6.70573 14.2008 6.56733 14.409 6.17894C14.484 5.9676 14.6189 5.78273 14.7973 5.64699C15.1127 5.40377 15.5854 5.28214 16.2155 5.2821C16.8218 5.2821 17.2622 5.39962 17.5369 5.63464C17.8115 5.86968 17.9731 6.22668 18.0218 6.70573C18.0218 7.26121 17.8487 7.63181 17.1779 7.63181C15.5425 7.57236 13.7852 7.75758 12.7954 8.32564C11.8057 8.89369 11.2462 10.0043 11.2462 11.1969C11.2462 11.6834 11.333 12.1093 11.5068 12.4748C11.6752 12.8331 11.9242 13.1475 12.2343 13.3934C12.5633 13.6503 12.9403 13.8386 13.3432 13.9472C13.8011 14.0729 14.2743 14.1345 14.7491 14.1301C15.4604 14.1301 16.0888 14.0409 16.6343 13.8623C17.1797 13.684 18.0238 13.0962 18.1312 13.0105V13.3238C18.1312 13.6343 18.2256 13.9112 18.5957 13.9112H20.5068C20.8937 13.9112 20.9797 13.6343 20.9797 13.2935V7.39966C20.9831 7.03329 20.9588 6.6672 20.9071 6.30448C20.8661 6.01574 20.7886 5.73339 20.6764 5.46423ZM18.0704 11.2429C18.0704 11.2429 17.5768 12.2691 15.8156 12.2691C15.331 12.2691 14.937 12.1596 14.6338 11.9407C14.3304 11.7217 14.1788 11.3809 14.1791 10.9183C14.1791 10.3175 14.4256 9.89341 14.9188 9.64605C15.4114 9.39887 16.3978 9.25767 17.137 9.27499C17.8761 9.29231 18.0704 9.75987 18.0704 10.0827V11.2432V11.2429Z" fill="#051F1C"/>
</svg>
