<svg width="56" height="18" viewBox="0 0 56 18" fill="none" xmlns="http://www.w3.org/2000/svg">
<path d="M24.222 17.6978H19.7012L22.5308 0.311676H27.0516L24.222 17.6978Z" fill="#051F1C"/>
<path d="M15.8954 0.311597L11.5836 12.2698L11.0725 9.69303L9.54856 1.87439C9.54856 1.87439 9.36271 0.306946 7.40197 0.306946H0.283829L0.200195 0.59997C0.200195 0.59997 2.37931 1.05579 4.93013 2.58602L8.86091 17.6931H13.5676L20.7647 0.311597H15.8954Z" fill="#051F1C"/>
<path d="M51.4686 17.6979H55.6225L51.9983 0.311676H48.3603C46.6829 0.311676 46.2741 1.60936 46.2741 1.60936L39.5322 17.7025H44.2436L45.1868 15.1211H50.9343L51.4686 17.6979ZM46.4924 11.549L48.8667 5.04195L50.2048 11.549H46.4924Z" fill="#051F1C"/>
<path d="M39.8828 4.49302L40.5287 0.75814C40.5287 0.75814 38.5354 0 36.4631 0C34.2189 0 28.8896 0.981395 28.8896 5.75814C28.8896 10.2512 35.1436 10.307 35.1436 12.6651C35.1436 15.0233 29.5354 14.6047 27.6815 13.1163L27.0078 17.0186C27.0078 17.0186 29.029 18 32.1141 18C35.1993 18 39.855 16.4 39.855 12.0465C39.855 7.52558 33.5452 7.10232 33.5452 5.13953C33.5452 3.17209 37.95 3.42326 39.8828 4.49302Z" fill="#051F1C"/>
<path d="M11.0773 9.69299L9.55326 1.87439C9.55326 1.87439 9.3674 0.306946 7.40665 0.306946H0.283829L0.200195 0.599969C0.200195 0.599969 3.62454 1.3116 6.91414 3.97206C10.0504 6.5209 11.0773 9.69299 11.0773 9.69299Z" fill="#051F1C"/>
</svg>
