<svg width="36" height="36" viewBox="0 0 36 36" fill="none" xmlns="http://www.w3.org/2000/svg">
<path d="M18.1334 18L17.9841 32.4577" stroke="#009081" stroke-width="2" stroke-linecap="round" stroke-linejoin="round"/>
<path d="M30.9216 24.6561V11.3439C30.9216 11.1446 30.8687 10.949 30.7683 10.7769C30.6679 10.6048 30.5236 10.4625 30.3502 10.3645L18.5377 3.68785C18.3688 3.5924 18.1781 3.54224 17.9841 3.54224C17.7901 3.54224 17.5994 3.5924 17.4306 3.68785L5.61807 10.3645C5.44463 10.4625 5.30034 10.6048 5.19994 10.7769C5.09954 10.949 5.04663 11.1446 5.04663 11.3439V24.6561C5.04663 24.8553 5.09953 25.0509 5.19993 25.223C5.30033 25.3951 5.44463 25.5374 5.61807 25.6355L17.4306 32.3121C17.5994 32.4075 17.7901 32.4577 17.9841 32.4577C18.1781 32.4577 18.3688 32.4075 18.5377 32.3121L30.3502 25.6355C30.5236 25.5374 30.6679 25.3951 30.7683 25.223C30.8687 25.0509 30.9216 24.8553 30.9216 24.6561V24.6561Z" stroke="#009081" stroke-width="2" stroke-linecap="round" stroke-linejoin="round"/>
<path d="M30.7676 10.7757L18.1334 18L5.20166 10.7742" stroke="#009081" stroke-width="2" stroke-linecap="round" stroke-linejoin="round"/>
<path d="M24.8937 20.8844V14.1344L11.8467 6.84412" stroke="#009081" stroke-width="2" stroke-linecap="round" stroke-linejoin="round"/>
</svg>
