<svg width="36" height="36" viewBox="0 0 36 36" fill="none" xmlns="http://www.w3.org/2000/svg">
<path d="M6.75 19.6296V29.2501C6.75 29.5484 6.86853 29.8346 7.07951 30.0455C7.29048 30.2565 7.57663 30.3751 7.875 30.3751H28.125C28.4234 30.3751 28.7095 30.2565 28.9205 30.0455C29.1315 29.8346 29.25 29.5484 29.25 29.2501V19.6299" stroke="#00554C" stroke-width="2" stroke-linecap="round" stroke-linejoin="round"/>
<path d="M7.59859 5.625H28.4014C28.6459 5.625 28.8837 5.70464 29.0789 5.85186C29.2741 5.99908 29.416 6.20587 29.4831 6.44094L31.5 13.5H4.5L6.51687 6.44094C6.58404 6.20587 6.72594 5.99908 6.92112 5.85186C7.11629 5.70464 7.35411 5.625 7.59859 5.625Z" stroke="#00554C" stroke-width="2" stroke-linecap="round" stroke-linejoin="round"/>
<path d="M13.5 13.5V15.75C13.5 16.9435 13.0259 18.0881 12.182 18.932C11.3381 19.7759 10.1935 20.25 9 20.25C7.80653 20.25 6.66193 19.7759 5.81802 18.932C4.97411 18.0881 4.5 16.9435 4.5 15.75V13.5" stroke="#00554C" stroke-width="2" stroke-linecap="round" stroke-linejoin="round"/>
<path d="M22.5 13.5V15.75C22.5 16.9435 22.0259 18.0881 21.182 18.932C20.3381 19.7759 19.1935 20.25 18 20.25C16.8065 20.25 15.6619 19.7759 14.818 18.932C13.9741 18.0881 13.5 16.9435 13.5 15.75V13.5" stroke="#00554C" stroke-width="2" stroke-linecap="round" stroke-linejoin="round"/>
<path d="M31.5 13.5V15.75C31.5 16.9435 31.0259 18.0881 30.182 18.932C29.3381 19.7759 28.1935 20.25 27 20.25C25.8065 20.25 24.6619 19.7759 23.818 18.932C22.9741 18.0881 22.5 16.9435 22.5 15.75V13.5" stroke="#00554C" stroke-width="2" stroke-linecap="round" stroke-linejoin="round"/>
</svg>
