<svg width="36" height="36" viewBox="0 0 36 36" fill="none" xmlns="http://www.w3.org/2000/svg">
<path d="M24.7734 14.0225H31.5234V7.27252" stroke="#4C6D6A" stroke-width="2" stroke-linecap="round" stroke-linejoin="round"/>
<path d="M9.24951 9.24955C10.3986 8.10043 11.7628 7.18889 13.2643 6.56699C14.7657 5.94509 16.3749 5.625 18 5.625C19.6251 5.625 21.2343 5.94509 22.7357 6.56699C24.2371 7.18889 25.6013 8.10043 26.7504 9.24955L31.5234 14.0225" stroke="#4C6D6A" stroke-width="2" stroke-linecap="round" stroke-linejoin="round"/>
<path d="M11.2266 21.9775H4.47656V28.7275" stroke="#4C6D6A" stroke-width="2" stroke-linecap="round" stroke-linejoin="round"/>
<path d="M26.7504 26.7504C25.6013 27.8995 24.2371 28.8111 22.7357 29.433C21.2343 30.0549 19.6251 30.3749 18 30.3749C16.3749 30.3749 14.7657 30.0549 13.2643 29.433C11.7629 28.8111 10.3987 27.8995 9.24953 26.7504L4.47656 21.9774" stroke="#4C6D6A" stroke-width="2" stroke-linecap="round" stroke-linejoin="round"/>
</svg>
